<svg width="512" height="512" viewBox="0 0 512 512" fill="none" xmlns="http://www.w3.org/2000/svg">
<path d="M419.265 132.66C419.265 127.78 417.363 123.19 413.91 119.735L392.978 98.8C385.848 91.67 374.25 91.67 367.433 98.515L280.39 172.405C272.618 179.005 268.948 189.325 270.81 199.34L275.048 222.161C269.297 218.915 262.795 217.16 256.01 217.16C245.633 217.16 235.878 221.2 228.54 228.54C221.203 235.875 217.16 245.63 217.16 256.01C217.16 262.993 219.029 269.672 222.46 275.543L199.543 271.005L199.54 271C189.4 269.025 178.958 272.65 172.278 280.52L98.7901 367.115C95.3376 370.57 93.4351 375.16 93.4351 380.04C93.4351 384.92 95.3376 389.51 98.7901 392.965L119.723 413.9C123.323 417.5 128.063 419.28 132.753 419.28C137.348 419.28 141.893 417.57 145.268 414.185L232.31 340.295C240.083 333.695 243.753 323.375 241.89 313.36L237.595 290.232C243.189 293.252 249.474 294.86 256.01 294.86C266.388 294.86 276.145 290.82 283.483 283.48C290.82 276.145 294.863 266.385 294.863 256.01C294.863 249.274 293.135 242.815 289.934 237.096L313.158 241.695L313.16 241.7C315 242.06 316.848 242.24 318.685 242.24C326.963 242.24 334.955 238.625 340.423 232.185L413.91 145.585C417.363 142.13 419.265 137.54 419.265 132.66ZM225.685 332.485L138.335 406.66C135.205 409.79 130.103 409.795 126.963 406.66L106.03 385.725C102.895 382.59 102.895 377.49 106.313 374.05L180.085 287.145C183.588 283.015 188.708 280.7 194.015 280.7C195.19 280.7 196.375 280.815 197.553 281.045L226.54 286.79L231.823 315.23C233.015 321.65 230.663 328.26 225.685 332.485ZM276.243 276.24C270.838 281.645 263.653 284.62 256.01 284.62C248.37 284.62 241.185 281.645 235.78 276.24C230.378 270.835 227.4 263.655 227.4 256.01C227.4 248.365 230.378 241.185 235.78 235.78C241.185 230.375 248.37 227.4 256.01 227.4C263.653 227.4 270.838 230.375 276.243 235.78C281.645 241.185 284.623 248.365 284.623 256.01C284.623 263.655 281.645 270.835 276.243 276.24ZM406.388 138.65L332.618 225.555C328.335 230.6 321.633 232.925 315.148 231.655L286.16 225.91L280.878 197.47C279.685 191.05 282.038 184.44 287.015 180.215L374.365 106.04C377.5 102.915 382.603 102.91 385.738 106.04L406.67 126.975C409.805 130.11 409.805 135.21 406.388 138.65Z" fill="#2B95F8"/>
<path d="M121.41 287.495C120.575 284.79 117.702 283.275 115.007 284.11C112.307 284.945 110.792 287.81 111.625 290.515C112.405 293.045 113.257 295.56 114.18 298.05C114.945 300.12 116.902 301.395 118.982 301.395C119.572 301.395 120.172 301.295 120.76 301.075C123.412 300.095 124.765 297.15 123.785 294.5C122.927 292.18 122.135 289.845 121.41 287.495Z" fill="black"/>
<path d="M171.228 127.74C166.905 130.51 162.668 133.56 158.638 136.81C156.435 138.585 156.09 141.805 157.865 144.01C158.875 145.265 160.358 145.915 161.853 145.915C162.98 145.915 164.118 145.545 165.063 144.78C168.805 141.765 172.735 138.935 176.748 136.37C179.13 134.845 179.825 131.675 178.3 129.295C176.775 126.915 173.603 126.215 171.228 127.74Z" fill="black"/>
<path d="M195.94 120.55C196.697 122.625 198.66 123.91 200.747 123.91C201.332 123.91 201.927 123.81 202.507 123.6C206.985 121.96 211.62 120.545 216.282 119.39C219.027 118.71 220.702 115.935 220.022 113.19C219.342 110.445 216.545 108.775 213.822 109.45C208.802 110.69 203.81 112.215 198.987 113.98C196.332 114.955 194.967 117.895 195.94 120.55Z" fill="black"/>
<path d="M244.775 115.555C249.637 115.435 254.415 115.56 259.177 115.955C259.322 115.965 259.462 115.97 259.602 115.97C262.24 115.97 264.48 113.945 264.7 111.27C264.932 108.45 262.835 105.98 260.017 105.745C254.892 105.325 249.685 105.19 244.52 105.315C241.692 105.385 239.457 107.735 239.53 110.565C239.597 113.39 242.05 115.42 244.775 115.555Z" fill="black"/>
<path d="M127.695 171.305C126.173 173.69 126.87 176.855 129.253 178.38C130.108 178.925 131.063 179.185 132.005 179.185C133.693 179.185 135.348 178.35 136.325 176.825C138.898 172.8 141.723 168.865 144.725 165.135C146.5 162.93 146.15 159.71 143.948 157.935C141.753 156.165 138.523 156.51 136.75 158.715C133.515 162.735 130.468 166.97 127.695 171.305Z" fill="black"/>
<path d="M105.32 244.59C105.287 245.81 105.272 247.02 105.272 248.235C105.272 252.195 105.437 256.185 105.76 260.09C105.982 262.765 108.22 264.79 110.857 264.79C110.997 264.79 111.142 264.785 111.285 264.775C114.102 264.54 116.197 262.065 115.965 259.25C115.665 255.62 115.512 251.915 115.512 248.235C115.512 247.11 115.527 245.98 115.555 244.85C115.627 242.025 113.395 239.675 110.567 239.6C107.722 239.555 105.39 241.76 105.32 244.59Z" fill="black"/>
<path d="M113.955 199.065C112.192 203.89 110.67 208.88 109.435 213.895C108.757 216.64 110.432 219.415 113.18 220.09C113.59 220.195 114.002 220.24 114.41 220.24C116.71 220.24 118.8 218.68 119.375 216.345C120.525 211.69 121.937 207.06 123.575 202.575C124.545 199.92 123.177 196.98 120.522 196.01C117.875 195.055 114.927 196.405 113.955 199.065Z" fill="black"/>
<path d="M298.06 114.185C295.562 113.255 293.042 112.405 290.505 111.625C287.81 110.795 284.94 112.32 284.107 115.015C283.277 117.72 284.797 120.585 287.5 121.415C289.847 122.135 292.177 122.925 294.49 123.785C295.077 124.005 295.68 124.105 296.275 124.105C298.352 124.105 300.307 122.83 301.072 120.77C302.06 118.12 300.71 115.175 298.06 114.185Z" fill="black"/>
<path d="M334.8 82.62C335.557 83.02 336.37 83.205 337.17 83.205C339.015 83.205 340.795 82.205 341.71 80.46C343.022 77.955 342.055 74.86 339.55 73.55C337.215 72.325 334.86 71.155 332.485 70.035C329.93 68.825 326.872 69.925 325.67 72.48C324.462 75.035 325.557 78.09 328.115 79.295C330.36 80.355 332.59 81.465 334.8 82.62Z" fill="black"/>
<path d="M51.2375 244.49C51.215 245.745 51.2025 246.995 51.2 248.255C51.2 252.03 51.3075 255.81 51.5225 259.58C51.68 262.305 53.9375 264.41 56.63 264.41C56.7275 264.41 56.8275 264.405 56.9275 264.4C59.75 264.24 61.9075 261.82 61.7475 259C61.5425 255.42 61.44 251.84 61.44 248.265C61.4425 247.075 61.455 245.875 61.4775 244.68C61.5275 241.85 59.2775 239.52 56.4525 239.465C53.7875 239.375 51.2925 241.66 51.2375 244.49Z" fill="black"/>
<path d="M131.885 89.21C127.852 92.165 123.875 95.33 120.057 98.605C117.912 100.45 117.665 103.68 119.507 105.825C120.52 107.005 121.952 107.61 123.395 107.61C124.575 107.61 125.762 107.205 126.727 106.375C130.347 103.265 134.12 100.27 137.94 97.47C140.22 95.795 140.712 92.595 139.042 90.31C137.37 88.035 134.167 87.53 131.885 89.21Z" fill="black"/>
<path d="M59.1575 220.435C61.6025 220.435 63.765 218.68 64.1975 216.19C65.01 211.505 66.015 206.79 67.1825 202.185C67.8775 199.44 66.22 196.655 63.4775 195.96C60.745 195.295 57.9525 196.93 57.2575 199.665C56.025 204.53 54.965 209.5 54.1075 214.44C53.625 217.225 55.49 219.875 58.2775 220.36C58.5725 220.41 58.8675 220.435 59.1575 220.435Z" fill="black"/>
<path d="M98.71 119.935C95.4425 123.735 92.28 127.71 89.3025 131.755C87.6275 134.035 88.115 137.24 90.3925 138.915C91.3075 139.585 92.37 139.91 93.4225 139.91C94.995 139.91 96.5475 139.19 97.5525 137.825C100.375 133.985 103.377 130.21 106.475 126.605C108.317 124.46 108.075 121.23 105.93 119.385C103.785 117.545 100.552 117.79 98.71 119.935Z" fill="black"/>
<path d="M244.818 61.475C249.588 61.375 254.363 61.47 259.12 61.75C259.223 61.755 259.323 61.76 259.423 61.76C262.113 61.76 264.37 59.66 264.53 56.935C264.693 54.115 262.538 51.695 259.715 51.53C254.685 51.24 249.668 51.135 244.603 51.235C241.778 51.295 239.533 53.635 239.59 56.46C239.653 59.29 242.158 61.41 244.818 61.475Z" fill="black"/>
<path d="M71.6076 178.185C73.6001 178.185 75.4926 177.02 76.3201 175.07C78.1876 170.685 80.2426 166.325 82.4326 162.115C83.7376 159.61 82.7601 156.515 80.2526 155.21C77.7401 153.91 74.6501 154.885 73.3476 157.395C71.0376 161.835 68.8676 166.435 66.9001 171.06C65.7926 173.66 67.0026 176.67 69.6051 177.775C70.2601 178.055 70.9401 178.185 71.6076 178.185Z" fill="black"/>
<path d="M171.185 66.855C166.595 68.81 161.997 70.97 157.527 73.29C155.015 74.59 154.035 77.68 155.337 80.19C156.247 81.95 158.035 82.955 159.887 82.955C160.68 82.955 161.485 82.77 162.237 82.38C166.48 80.185 170.835 78.13 175.19 76.285C177.792 75.175 179.005 72.17 177.9 69.57C176.797 66.965 173.792 65.76 171.185 66.855Z" fill="black"/>
<path d="M201.047 67.31C201.462 67.31 201.882 67.26 202.302 67.155C206.932 65.99 211.645 64.99 216.312 64.18C219.1 63.7 220.967 61.05 220.485 58.26C220.005 55.48 217.365 53.625 214.567 54.09C209.645 54.94 204.677 55.995 199.802 57.225C197.06 57.915 195.397 60.7 196.087 63.44C196.672 65.765 198.757 67.31 201.047 67.31Z" fill="black"/>
<path d="M59.2425 304.14C59.9 306.37 61.94 307.815 64.1525 307.815C64.63 307.815 65.1175 307.75 65.6 307.605C68.3125 306.81 69.865 303.965 69.0675 301.25C67.725 296.685 66.5425 292.015 65.5525 287.37C64.9625 284.6 62.235 282.84 59.4775 283.425C56.7125 284.015 54.9475 286.735 55.5375 289.5C56.58 294.4 57.8275 299.325 59.2425 304.14Z" fill="black"/>
<path d="M307.728 65.64C308.528 62.925 306.978 60.08 304.265 59.28C299.48 57.87 294.555 56.62 289.63 55.565C286.858 54.96 284.143 56.735 283.55 59.5C282.96 62.265 284.72 64.985 287.485 65.575C292.16 66.575 296.833 67.765 301.37 69.1C301.853 69.245 302.34 69.31 302.82 69.31C305.033 69.31 307.073 67.865 307.728 65.64Z" fill="black"/>
<path d="M73.5425 339.545C74.4575 341.295 76.24 342.295 78.0875 342.295C78.885 342.295 79.695 342.11 80.4525 341.715C82.9575 340.405 83.93 337.315 82.6225 334.805C81.465 332.59 80.355 330.365 79.295 328.115C78.09 325.56 75.0375 324.455 72.48 325.67C69.9225 326.875 68.8275 329.93 70.035 332.485C71.155 334.855 72.325 337.21 73.5425 339.545Z" fill="black"/>
<path d="M174.758 428.05C172.273 426.72 169.16 427.635 167.818 430.12C166.473 432.605 167.398 435.715 169.883 437.06C172.2 438.31 174.535 439.515 176.893 440.67C177.618 441.03 178.385 441.195 179.14 441.195C181.033 441.195 182.853 440.145 183.743 438.33C184.988 435.79 183.938 432.72 181.398 431.48C179.165 430.385 176.95 429.24 174.758 428.05Z" fill="black"/>
<path d="M376.822 424.015C377.87 424.015 378.927 423.695 379.84 423.03C383.947 420.025 387.98 416.83 391.822 413.535C393.97 411.695 394.217 408.465 392.377 406.32C390.535 404.16 387.3 403.915 385.157 405.765C381.515 408.885 377.692 411.915 373.795 414.76C371.512 416.43 371.015 419.635 372.685 421.915C373.687 423.29 375.242 424.015 376.822 424.015Z" fill="black"/>
<path d="M409.54 393.74C410.98 393.74 412.412 393.135 413.427 391.955C416.737 388.1 419.937 384.07 422.935 379.975C424.605 377.69 424.107 374.49 421.825 372.82C419.545 371.14 416.337 371.65 414.67 373.925C411.83 377.81 408.797 381.63 405.657 385.285C403.815 387.43 404.062 390.66 406.205 392.505C407.172 393.335 408.36 393.74 409.54 393.74Z" fill="black"/>
<path d="M338.007 445.925C338.667 445.925 339.337 445.8 339.982 445.525C344.657 443.57 349.317 441.4 353.835 439.08C356.35 437.785 357.342 434.7 356.05 432.185C354.755 429.675 351.667 428.68 349.155 429.97C344.875 432.17 340.457 434.225 336.027 436.085C333.42 437.175 332.19 440.175 333.282 442.785C334.105 444.745 336.005 445.925 338.007 445.925Z" fill="black"/>
<path d="M432.107 356.19C432.857 356.58 433.657 356.76 434.445 356.76C436.302 356.76 438.095 355.75 439.002 353.985C441.327 349.465 443.502 344.8 445.467 340.12C446.562 337.515 445.337 334.515 442.73 333.42C440.115 332.31 437.122 333.55 436.027 336.16C434.165 340.595 432.102 345.015 429.897 349.295C428.602 351.81 429.592 354.9 432.107 356.19Z" fill="black"/>
<path d="M448.867 314.855C449.28 314.96 449.69 315.005 450.097 315.005C452.397 315.005 454.49 313.445 455.065 311.11C456.277 306.18 457.315 301.145 458.142 296.135C458.605 293.345 456.72 290.71 453.93 290.25C451.112 289.74 448.502 291.675 448.042 294.465C447.255 299.21 446.272 303.985 445.12 308.66C444.445 311.405 446.122 314.18 448.867 314.855Z" fill="black"/>
<path d="M460.792 265.695L460.8 263.795C460.8 259.365 460.647 254.865 460.347 250.425C460.157 247.605 457.757 245.515 454.895 245.66C452.075 245.85 449.942 248.295 450.132 251.115C450.415 255.325 450.56 259.595 450.56 263.795L450.552 265.615C450.53 268.44 452.802 270.75 455.63 270.775C455.645 270.775 455.66 270.775 455.672 270.775C458.482 270.775 460.77 268.51 460.792 265.695Z" fill="black"/>
<path d="M450.942 226.44C451.315 226.44 451.695 226.4 452.072 226.315C454.832 225.695 456.565 222.95 455.942 220.195C454.827 215.25 453.502 210.28 452.002 205.42C451.167 202.72 448.297 201.21 445.6 202.04C442.897 202.87 441.385 205.74 442.217 208.44C443.64 213.05 444.897 217.76 445.952 222.445C446.49 224.825 448.602 226.44 450.942 226.44Z" fill="black"/>
<path d="M201.912 445.555C201.077 448.26 202.59 451.125 205.292 451.96C210.16 453.465 215.13 454.795 220.06 455.915C220.44 456 220.82 456.04 221.195 456.04C223.532 456.04 225.645 454.43 226.182 452.05C226.807 449.295 225.077 446.55 222.32 445.925C217.647 444.87 212.935 443.605 208.317 442.18C205.632 441.355 202.747 442.855 201.912 445.555Z" fill="black"/>
<path d="M308.527 445.155C303.877 446.3 299.102 447.28 294.335 448.065C291.545 448.52 289.655 451.155 290.115 453.945C290.527 456.455 292.7 458.235 295.162 458.235C295.437 458.235 295.717 458.215 296 458.165C301.027 457.34 306.067 456.305 310.977 455.095C313.722 454.42 315.4 451.645 314.725 448.9C314.047 446.155 311.265 444.455 308.527 445.155Z" fill="black"/>
<path d="M250.285 460.34C254.76 460.645 259.305 460.8 263.792 460.8L265.557 460.79C268.385 460.765 270.657 458.455 270.632 455.625C270.607 452.815 268.32 450.55 265.512 450.55C265.497 450.55 265.482 450.55 265.467 450.55L263.792 450.56C259.537 450.56 255.227 450.415 250.985 450.12C248.152 450.005 245.72 452.06 245.527 454.88C245.335 457.7 247.465 460.145 250.285 460.34Z" fill="black"/>
<path d="M436.083 184.265C436.84 184.265 437.61 184.095 438.335 183.74C440.873 182.495 441.92 179.425 440.673 176.885C439.515 174.53 438.313 172.195 437.055 169.88C435.71 167.395 432.61 166.475 430.115 167.82C427.63 169.165 426.705 172.275 428.055 174.76C429.243 176.955 430.385 179.17 431.483 181.405C432.373 183.215 434.19 184.265 436.083 184.265Z" fill="black"/>
<path d="M390.085 208.145C387.455 209.185 386.168 212.155 387.205 214.785C388.115 217.085 388.958 219.405 389.735 221.745C390.45 223.89 392.448 225.245 394.593 225.245C395.128 225.245 395.673 225.16 396.21 224.985C398.893 224.09 400.343 221.19 399.45 218.505C398.613 215.995 397.705 213.495 396.73 211.025C395.693 208.39 392.718 207.105 390.085 208.145Z" fill="black"/>
<path d="M406.755 265.23L406.762 263.75C406.762 258.985 406.522 254.16 406.047 249.42C405.767 246.61 403.275 244.615 400.442 244.835C397.63 245.115 395.577 247.625 395.857 250.44C396.3 254.845 396.522 259.325 396.522 263.75L396.515 265.12C396.485 267.95 398.752 270.265 401.58 270.295C401.6 270.295 401.617 270.295 401.635 270.295C404.437 270.295 406.725 268.04 406.755 265.23Z" fill="black"/>
<path d="M314.955 391.93C314.005 389.265 311.073 387.88 308.413 388.825C303.808 390.47 299.07 391.865 294.328 392.98C291.573 393.625 289.868 396.385 290.513 399.135C291.068 401.495 293.17 403.085 295.493 403.085C295.88 403.085 296.275 403.04 296.668 402.95C301.78 401.75 306.89 400.24 311.853 398.475C314.515 397.525 315.905 394.595 314.955 391.93Z" fill="black"/>
<path d="M263.76 406.76L265.3 406.75C268.127 406.72 270.395 404.405 270.367 401.58C270.34 398.75 268.05 396.255 265.195 396.51L263.76 396.52C259.367 396.52 254.91 396.3 250.51 395.86C247.672 395.595 245.187 397.635 244.907 400.45C244.627 403.26 246.682 405.77 249.495 406.05C254.23 406.52 259.03 406.76 263.76 406.76Z" fill="black"/>
<path d="M371.473 354.98C372.973 354.98 374.46 354.325 375.47 353.06C378.768 348.95 381.86 344.615 384.665 340.185C386.178 337.795 385.468 334.63 383.08 333.12C380.685 331.6 377.528 332.31 376.015 334.705C373.41 338.82 370.538 342.84 367.48 346.66C365.71 348.865 366.068 352.09 368.275 353.855C369.218 354.615 370.348 354.98 371.473 354.98Z" fill="black"/>
<path d="M398.498 311.77C400.258 306.82 401.76 301.71 402.963 296.59C403.608 293.84 401.9 291.08 399.148 290.435C396.398 289.805 393.64 291.495 392.993 294.25C391.878 299 390.483 303.745 388.848 308.34C387.9 311.005 389.293 313.93 391.958 314.88C392.525 315.08 393.103 315.175 393.673 315.175C395.778 315.175 397.75 313.865 398.498 311.77Z" fill="black"/>
<path d="M337.528 385.41C338.465 385.41 339.413 385.155 340.263 384.615C344.69 381.81 349.02 378.71 353.14 375.41C355.345 373.64 355.698 370.415 353.928 368.21C352.16 366 348.93 365.655 346.73 367.42C342.908 370.49 338.888 373.365 334.783 375.965C332.393 377.48 331.685 380.645 333.198 383.03C334.173 384.57 335.833 385.41 337.528 385.41Z" fill="black"/>
<path d="M211.023 396.725C213.498 397.705 215.995 398.615 218.513 399.45C219.048 399.625 219.59 399.71 220.125 399.71C222.273 399.71 224.27 398.35 224.985 396.205C225.875 393.52 224.423 390.62 221.738 389.73C219.405 388.955 217.088 388.115 214.793 387.205C212.165 386.16 209.19 387.45 208.148 390.08C207.105 392.71 208.393 395.685 211.023 396.725Z" fill="black"/>
</svg>
